<?xml version="1.0" standalone="no"?>
<!DOCTYPE svg PUBLIC "-//W3C//DTD SVG 20010904//EN"
 "http://www.w3.org/TR/2001/REC-SVG-20010904/DTD/svg10.dtd">
<svg version="1.0" xmlns="http://www.w3.org/2000/svg"
 width="800.000000pt" height="800.000000pt" viewBox="0 0 800.000000 800.000000"
 preserveAspectRatio="xMidYMid meet">
<metadata>
Created by potrace 1.14, written by Peter Selinger 2001-2017
</metadata>
<g transform="translate(0.000000,800.000000) scale(0.100000,-0.100000)"
fill="#000000" stroke="none">
<path d="M0 4000 l0 -4000 363 0 363 0 18 98 c12 63 21 188 27 357 19 561 41
1073 48 1125 19 131 144 516 215 661 56 114 180 283 200 271 5 -3 6 0 2 7 -10
15 13 43 27 34 6 -4 7 -1 2 7 -5 8 20 38 74 91 65 63 88 79 112 79 17 0 28 3
26 8 -3 4 6 8 20 9 14 0 30 7 37 13 8 10 7 12 -6 7 -10 -4 -18 -2 -18 3 0 10
91 60 109 60 12 0 132 59 426 207 211 106 296 144 540 238 83 32 173 71 201
87 73 40 155 66 210 66 27 0 56 0 65 1 20 1 95 144 104 196 10 61 36 138 51
155 15 16 15 22 -1 -105 -21 -163 -10 -242 50 -371 34 -75 123 -234 130 -234
4 0 -38 97 -61 142 -8 15 -12 28 -10 28 2 0 39 -66 82 -147 42 -82 80 -150 84
-153 4 -3 37 -45 74 -95 100 -133 123 -184 94 -213 -20 -20 14 -15 89 13 71
27 99 45 71 45 -9 0 -41 21 -72 47 -76 62 -213 244 -348 464 -70 112 -90 157
-67 144 8 -5 11 -4 6 1 -5 5 -14 9 -20 9 -17 0 -45 95 -52 172 -2 36 -9 93
-15 126 -6 34 -9 94 -6 132 2 39 5 76 5 83 1 6 6 12 12 12 6 0 9 -6 6 -13 -3
-7 3 -18 13 -24 9 -7 34 -44 55 -85 21 -40 49 -82 61 -93 13 -11 24 -25 24
-29 0 -16 99 -103 143 -126 23 -12 54 -38 67 -57 42 -57 50 -63 76 -57 16 4
26 1 30 -9 3 -9 13 -13 27 -9 12 3 19 1 15 -3 -9 -9 45 -45 67 -45 8 0 15 7
15 15 0 8 5 15 10 15 6 0 10 -5 10 -11 0 -7 11 -9 33 -5 17 4 43 8 57 9 14 1
31 6 38 10 7 5 12 4 12 -2 0 -6 9 -11 21 -11 11 0 18 4 15 8 -6 10 90 10 99 0
10 -10 56 10 71 30 10 12 13 13 14 3 0 -11 3 -11 15 -1 8 7 25 10 40 6 16 -4
25 -2 25 5 0 15 31 38 51 39 9 0 22 7 29 15 7 8 21 15 30 15 10 0 21 6 23 13
3 6 6 -2 6 -20 1 -17 -5 -33 -12 -36 -8 -3 -7 -7 5 -12 9 -3 36 3 63 15 35 16
45 25 41 38 -3 9 8 2 24 -16 25 -27 34 -31 46 -22 11 10 14 9 14 -6 0 -11 4
-15 8 -9 4 6 18 16 32 24 24 14 24 13 10 -5 -8 -10 -26 -29 -40 -42 -94 -87
-163 -148 -182 -161 -11 -9 -32 -27 -46 -40 -59 -55 -192 -149 -262 -185 -41
-21 -82 -44 -90 -51 -8 -7 -25 -16 -37 -19 -12 -4 -43 -25 -69 -46 -45 -37
-51 -39 -101 -34 -33 3 -53 1 -53 -6 0 -5 4 -10 9 -10 5 0 11 -11 13 -25 3
-14 2 -25 -3 -25 -11 0 -5 -46 9 -63 14 -17 6 -27 -16 -21 -11 4 -10 1 3 -7
11 -7 33 -12 49 -10 18 2 26 -1 22 -8 -4 -6 -13 -11 -19 -11 -21 0 -118 -49
-149 -75 -36 -30 -34 -31 21 -4 24 11 59 23 79 26 29 5 61 32 176 147 78 78
177 170 220 206 44 36 140 119 214 185 74 66 198 175 276 243 184 161 247 227
328 348 58 86 115 208 153 329 4 14 21 -20 60 -120 72 -189 157 -389 189 -449
14 -27 26 -57 26 -67 0 -26 19 -33 39 -15 10 9 28 16 41 16 25 0 122 -62 178
-114 37 -34 142 -170 142 -183 0 -22 50 -36 130 -38 59 -1 95 -7 118 -19 71
-37 371 -240 383 -259 4 -5 13 -6 20 -1 12 6 12 5 0 -9 -11 -14 -11 -17 0 -17
7 0 40 -19 73 -42 33 -23 56 -36 52 -30 -5 8 -2 10 8 6 9 -3 16 -11 16 -16 0
-6 7 -8 15 -5 8 4 17 2 20 -3 4 -6 15 -10 26 -10 10 0 20 -6 20 -12 1 -7 2
-19 3 -26 1 -14 20 -26 106 -67 30 -14 71 -39 90 -56 25 -22 28 -27 10 -17
-14 7 -29 19 -33 25 -11 18 -27 16 -27 -2 0 -16 64 -55 122 -76 20 -7 35 -16
32 -21 -3 -4 3 -8 14 -8 10 0 50 -27 89 -59 64 -55 108 -104 207 -234 36 -48
47 -75 24 -61 -7 4 -8 3 -4 -4 4 -6 13 -9 20 -6 9 3 22 -11 36 -41 12 -25 21
-48 19 -50 -2 -2 -24 1 -49 5 -77 15 -98 9 -30 -8 58 -15 67 -21 82 -52 30
-63 80 -405 92 -635 13 -250 18 -348 21 -460 5 -190 16 -427 20 -460 4 -22 2
-26 -5 -15 -5 8 -10 34 -10 58 0 24 -5 42 -11 42 -6 0 -8 -7 -5 -16 6 -16 9
-173 4 -204 -2 -8 3 -66 11 -127 l14 -113 203 0 204 0 0 4000 0 4000 -4000 0
-4000 0 0 -4000z m3947 2495 c22 -4 57 -2 76 3 21 6 40 6 50 0 10 -5 17 -5 17
0 0 4 32 3 70 -2 48 -8 80 -19 103 -36 17 -14 63 -41 101 -60 37 -19 70 -40
73 -47 3 -7 11 -13 19 -13 8 0 14 -5 14 -11 0 -5 4 -8 9 -5 5 3 14 -1 21 -9 7
-8 20 -15 30 -15 44 0 124 -68 113 -96 -3 -8 0 -14 7 -14 7 0 10 -8 7 -20 -3
-11 -1 -20 4 -20 5 0 9 -7 9 -15 0 -8 5 -15 11 -15 6 0 9 -9 6 -20 -3 -11 -1
-23 4 -26 5 -3 9 -18 9 -35 0 -16 4 -29 8 -29 4 0 9 -9 10 -20 4 -43 6 -50 14
-50 4 0 8 -9 8 -20 0 -11 5 -20 10 -20 18 0 10 -22 -10 -27 -11 -3 -23 -16
-26 -28 -5 -22 -10 -23 -60 -19 -49 4 -74 -7 -41 -19 6 -2 9 -7 6 -11 -3 -3
-21 0 -40 8 -19 7 -72 19 -118 26 -69 11 -86 11 -89 0 -3 -8 -7 -9 -11 -2 -5
8 -18 8 -46 1 -22 -6 -82 -14 -133 -17 -77 -6 -91 -5 -87 7 5 12 3 12 -10 1
-9 -8 -26 -15 -38 -16 -62 -8 -84 -13 -109 -23 -16 -6 -28 -15 -28 -20 0 -5
-8 -7 -19 -4 -24 6 -41 -40 -41 -109 0 -47 2 -50 35 -64 20 -8 40 -12 45 -9
14 9 12 -16 -4 -61 -7 -22 -11 -45 -8 -53 2 -7 -1 -16 -7 -20 -6 -4 -12 -24
-13 -44 -1 -21 -6 -37 -13 -37 -7 0 -10 -11 -7 -29 2 -16 -1 -32 -8 -36 -8 -5
-6 -11 6 -19 15 -11 14 -17 -11 -69 -14 -32 -31 -54 -36 -51 -6 3 -13 -3 -16
-15 -3 -11 -9 -18 -14 -16 -9 6 -23 -56 -21 -90 1 -11 7 -24 14 -30 7 -5 22
-27 33 -49 11 -21 37 -52 58 -69 43 -36 47 -46 12 -39 -20 3 -24 1 -19 -12 4
-11 2 -15 -8 -11 -20 8 -57 -8 -93 -39 -22 -20 -36 -25 -55 -20 -27 7 -31 7
-75 -2 -23 -4 -37 0 -60 20 -34 29 -82 43 -97 28 -8 -8 0 -15 23 -26 19 -8 28
-15 21 -15 -9 -1 -8 -7 4 -26 9 -14 12 -25 8 -25 -5 0 0 -7 10 -15 17 -13 22
-13 42 0 14 9 25 11 29 5 3 -6 15 -5 30 2 19 9 31 8 53 -2 23 -11 74 -18 155
-21 9 0 17 -5 17 -11 0 -7 5 -6 15 2 8 6 19 9 25 5 13 -8 72 33 65 46 -4 5 -1
9 4 9 6 0 11 -5 11 -12 0 -6 7 -4 18 5 10 10 26 17 34 17 9 0 18 6 21 13 3 8
10 6 21 -8 13 -16 17 -18 25 -6 10 15 75 41 103 41 18 0 41 -36 51 -81 4 -14
28 -46 54 -71 85 -79 123 -127 123 -153 0 -14 5 -25 10 -25 15 0 12 56 -5 97
-22 53 -76 130 -129 186 -25 26 -46 52 -46 56 0 11 -129 127 -167 150 -17 11
-34 17 -37 14 -3 -4 -6 -1 -6 5 0 7 -7 12 -15 12 -8 0 -15 5 -15 10 0 6 -7 10
-14 10 -35 0 -94 84 -82 116 2 6 -4 14 -15 17 -11 3 -19 14 -19 27 0 17 -4 21
-20 17 -13 -3 -20 0 -20 9 0 8 5 14 11 14 7 0 17 7 23 16 10 14 14 13 30 -5
17 -19 17 -21 3 -21 -10 0 -17 -4 -17 -10 0 -15 63 -7 81 11 22 22 29 45 17
57 -6 6 -7 15 -3 21 4 8 16 4 37 -11 76 -58 105 -71 94 -42 -3 8 1 22 9 30 24
24 19 32 -42 66 l-57 32 28 11 c29 12 136 -1 136 -16 0 -5 14 -6 30 -2 18 3
30 1 30 -5 0 -10 68 -7 100 5 8 3 28 7 45 8 16 2 31 8 33 14 2 7 11 7 30 -1
61 -23 80 -26 105 -13 14 7 38 11 53 9 26 -4 26 -3 8 5 -33 14 -37 29 -14 48
25 22 25 27 -1 52 -12 11 -19 23 -16 28 3 5 -3 14 -13 21 -28 17 -35 -14 -10
-48 32 -45 23 -46 -24 -2 -68 62 -133 91 -249 108 -56 8 -121 13 -144 9 -33
-5 -43 -3 -43 8 0 20 37 60 49 52 6 -3 11 -2 11 3 0 16 50 25 155 27 76 2 104
-2 117 -13 10 -8 25 -12 34 -8 10 4 23 -3 36 -19 11 -14 26 -25 34 -25 8 0 14
-7 14 -15 0 -9 11 -20 24 -25 13 -5 27 -14 31 -20 3 -5 11 -7 17 -4 7 5 9 1 5
-9 -4 -11 2 -19 21 -26 57 -21 90 -62 110 -136 10 -38 17 -88 16 -110 -2 -21
2 -45 8 -52 6 -7 8 -29 5 -49 -4 -26 -3 -34 6 -31 9 3 11 -19 10 -87 -2 -50
-7 -92 -12 -94 -6 -2 -6 -11 2 -24 8 -14 9 -22 1 -25 -6 -2 -9 -27 -6 -65 4
-53 3 -60 -12 -55 -9 4 -16 2 -16 -2 0 -5 -3 -18 -6 -28 -4 -13 -3 -15 4 -4
11 15 27 -2 18 -18 -4 -5 0 -11 6 -14 10 -3 10 -7 -1 -20 -7 -9 -11 -23 -8
-32 4 -8 2 -17 -2 -20 -5 -3 -8 10 -7 29 1 19 -2 32 -7 29 -5 -3 -11 4 -14 15
-2 11 -13 22 -24 25 -21 6 -26 -8 -6 -17 6 -3 2 -3 -10 0 -30 7 -47 -4 -33
-21 7 -8 7 -21 1 -38 -7 -17 -7 -28 -1 -32 6 -4 10 -1 10 4 0 6 6 11 14 11 8
0 17 6 19 13 3 6 6 2 6 -10 1 -14 -5 -23 -14 -23 -8 0 -15 -2 -15 -4 0 -2 -2
-11 -6 -19 -3 -9 6 -19 25 -27 17 -7 28 -16 26 -20 -3 -5 -1 -11 4 -15 11 -6
8 -80 -10 -205 l-11 -85 -67 -62 c-36 -34 -62 -63 -57 -63 10 0 -39 -40 -49
-40 -5 0 -14 8 -22 18 -12 15 -13 13 -7 -17 4 -24 3 -31 -5 -27 -6 4 -9 11 -6
15 4 8 -86 23 -93 16 -2 -2 2 -12 9 -23 11 -18 10 -24 -4 -40 -9 -10 -17 -22
-17 -26 0 -16 -40 -94 -55 -106 -8 -7 -15 -21 -15 -32 0 -15 -4 -18 -17 -14
-10 4 -14 4 -10 0 4 -4 -2 -13 -13 -21 -11 -8 -17 -20 -14 -28 4 -9 0 -15 -10
-15 -9 0 -16 -3 -16 -8 0 -18 -61 -74 -76 -68 -8 3 -17 -1 -21 -10 -3 -9 -26
-28 -51 -44 -35 -22 -50 -26 -64 -19 -11 6 -18 6 -18 1 0 -6 -24 -17 -52 -27
-29 -9 -61 -24 -70 -32 -12 -11 -18 -12 -18 -4 0 7 -10 10 -27 7 -16 -2 -32
-5 -36 -5 -5 -1 -5 -6 -2 -11 7 -11 -18 -8 -47 5 -21 9 -52 -1 -43 -14 3 -5 1
-12 -4 -16 -5 -3 -14 3 -20 12 -6 10 -11 12 -11 6 0 -21 -42 -15 -67 9 -22 20
-23 20 -23 3 0 -18 -1 -18 -15 1 -8 13 -30 24 -55 28 -22 3 -40 12 -41 19 0 9
-2 9 -6 0 -7 -19 -23 -16 -23 5 -1 20 -27 58 -36 50 -3 -4 -19 -2 -35 4 -22 8
-28 15 -24 28 4 14 0 19 -17 22 -15 2 -24 11 -26 26 -2 12 -8 22 -14 22 -6 0
-8 9 -5 20 3 13 -1 21 -14 25 -10 4 -18 9 -17 13 4 15 -14 50 -27 56 -8 3 -15
12 -15 20 0 8 -6 19 -14 23 -19 11 -139 191 -185 277 -21 39 -48 100 -61 136
-12 36 -26 74 -30 85 -8 17 -17 80 -34 215 -3 19 -12 52 -20 72 -9 21 -16 61
-16 89 0 29 -6 59 -13 68 -32 37 -66 170 -87 336 -6 50 -18 118 -27 153 -8 35
-12 66 -9 69 3 3 8 -3 11 -13 4 -10 11 -28 18 -39 67 -121 78 -156 79 -254 1
-87 2 -92 11 -51 5 25 11 78 12 117 2 40 6 86 10 103 4 19 3 30 -4 30 -6 0
-11 9 -11 20 0 14 7 20 21 20 15 0 19 5 15 15 -3 8 -1 15 4 15 6 0 10 7 10 16
0 8 4 13 9 9 6 -3 15 3 20 14 9 16 7 20 -7 24 -13 4 -12 5 4 6 22 1 36 21 40
56 1 10 6 21 12 23 6 2 8 10 5 18 -3 8 1 14 11 14 9 0 16 5 16 10 0 6 7 10 15
10 9 0 12 6 9 15 -4 10 0 15 12 15 9 0 26 8 36 17 29 26 123 20 187 -11 28
-13 48 -19 45 -13 -4 7 3 2 15 -10 31 -32 26 -43 -21 -43 -63 0 -193 -39 -238
-71 -23 -17 -42 -41 -46 -56 -4 -16 -10 -30 -14 -33 -14 -10 -22 -50 -10 -50
6 0 8 -4 5 -10 -7 -11 -5 -12 48 -15 20 -1 45 -10 55 -19 24 -21 39 -20 51 2
8 14 23 19 65 20 31 1 56 -3 56 -8 0 -5 10 -10 23 -12 17 -2 21 -9 19 -28 -4
-33 -12 -40 -72 -60 -71 -24 -36 -31 71 -14 46 8 90 12 98 9 11 -5 108 67 134
100 10 11 4 -29 -8 -60 -5 -11 -5 -17 -1 -14 15 14 56 144 56 178 0 20 -9 55
-19 78 -20 43 -21 58 -7 82 13 20 10 101 -3 114 -8 8 -11 7 -11 -2 0 -9 -4 -8
-15 3 -8 8 -15 24 -15 35 0 23 -15 28 -23 9 -3 -8 -6 -6 -6 5 -1 20 -12 22
-29 5 -7 -7 -12 -8 -12 -2 0 5 -8 10 -17 11 -31 2 -47 8 -91 31 -38 20 -42 20
-42 4 0 -13 -2 -14 -9 -4 -4 8 -11 13 -15 12 -3 -1 -21 2 -39 6 -25 6 -152 9
-152 4 0 -2 -24 -7 -52 -12 -38 -7 -114 -69 -108 -89 6 -17 -8 -32 -33 -35 -6
-1 -10 2 -6 7 3 5 13 9 22 10 14 0 14 2 -2 8 -11 4 -20 17 -21 30 -1 14 3 20
12 17 7 -3 13 -1 13 4 0 6 -4 10 -10 10 -5 0 -10 5 -10 11 0 5 5 7 10 4 6 -3
10 -1 10 5 0 6 -6 13 -13 16 -14 5 -14 22 -2 61 4 13 11 20 16 17 5 -3 9 0 9
7 0 6 7 17 17 24 14 10 17 37 19 176 3 196 7 229 29 263 10 16 13 26 6 26 -27
0 -7 20 29 30 22 6 38 15 35 19 -3 5 27 12 66 16 50 5 67 10 58 17 -10 6 -7 7
9 3 15 -4 30 -1 41 9 18 16 110 24 147 12 12 -3 33 0 48 8 23 11 34 12 70 1
65 -20 167 -28 198 -16 18 7 29 7 34 0 3 -6 13 -2 22 9 22 24 41 32 72 27 14
-2 44 -7 67 -10z m563 -154 c0 -5 10 -11 22 -14 12 -4 19 -9 16 -12 -6 -6 -68
21 -68 30 0 3 7 5 15 5 8 0 15 -4 15 -9z m270 -497 c0 -11 -5 -14 -16 -10 -9
3 -21 6 -27 7 -7 0 -3 4 8 9 29 13 35 12 35 -6z m-20 -23 c0 -18 -18 -21 -30
-6 -10 13 -9 15 9 15 11 0 21 -4 21 -9z m-470 -275 c0 -11 -19 -15 -25 -6 -3
5 1 10 9 10 9 0 16 -2 16 -4z m-995 -26 c-4 -6 -13 -9 -21 -6 -8 3 -14 2 -14
-3 0 -13 -52 -23 -62 -13 -9 9 26 25 77 35 25 4 29 2 20 -13z m925 10 c0 -4
-11 -10 -25 -12 -16 -3 -25 -1 -25 7 0 7 11 13 25 13 14 0 25 -4 25 -8z m173
3 c-7 -2 -21 -2 -30 0 -10 3 -4 5 12 5 17 0 24 -2 18 -5z m1023 -88 c1 -41 6
-81 13 -88 6 -8 14 -43 17 -78 l6 -64 -28 55 c-16 30 -33 55 -39 55 -5 0 -16
4 -23 8 -7 5 -22 5 -33 2 -15 -5 -20 -3 -17 6 4 12 21 23 66 46 2 1 -4 13 -13
26 -15 23 -15 28 -1 56 9 16 24 35 33 40 10 6 18 11 18 11 0 0 0 -34 1 -75z
m-1186 13 c0 -13 7 -36 15 -52 9 -16 14 -30 12 -32 -1 -2 -29 4 -61 12 -31 8
-66 12 -77 9 -14 -5 -19 -2 -19 12 0 11 19 28 53 45 64 33 77 34 77 6z m56
-15 c-10 -10 -19 5 -10 18 6 11 8 11 12 0 2 -7 1 -15 -2 -18z m1044 24 c0 -2
-11 -13 -25 -25 -27 -24 -35 -13 -9 12 14 14 34 22 34 13z m-940 -17 c0 -5 -4
-10 -10 -10 -5 0 -10 5 -10 10 0 6 5 10 10 10 6 0 10 -4 10 -10z m-1064 -27
c-10 -10 -19 5 -10 18 6 11 8 11 12 0 2 -7 1 -15 -2 -18z m-62 -28 c22 -33 21
-35 -15 -25 -39 12 -41 13 -33 34 9 23 29 20 48 -9z m2213 -37 c-3 -8 -6 -5
-6 6 -1 11 2 17 5 13 3 -3 4 -12 1 -19z m-202 -159 c4 -22 4 -43 1 -46 -3 -4
-6 5 -6 20 0 14 -4 29 -10 32 -13 8 -13 35 -1 35 5 0 12 -18 16 -41z m-15
-101 c0 -22 -21 -68 -31 -68 -13 0 -23 -70 -11 -82 7 -7 18 -4 36 7 25 17 26
17 26 -4 0 -11 -4 -21 -10 -21 -5 0 -7 -6 -5 -12 3 -7 1 -19 -4 -26 -12 -20
-61 5 -62 32 0 18 -1 19 -7 4 -7 -17 -8 -17 -18 0 -6 9 -9 26 -7 37 2 11 8 47
12 80 5 33 12 68 15 78 3 9 8 25 11 34 5 14 10 13 30 -12 13 -17 24 -38 25
-47z m-13 50 c-3 -8 -6 -5 -6 6 -1 11 2 17 5 13 3 -3 4 -12 1 -19z m63 -167
c0 -6 -4 -13 -10 -16 -5 -3 -10 1 -10 9 0 9 5 16 10 16 6 0 10 -4 10 -9z
m-504 -417 c-4 -9 -9 -15 -11 -12 -3 3 -3 13 1 22 4 9 9 15 11 12 3 -3 3 -13
-1 -22z m-296 -498 c0 -2 -7 -6 -15 -10 -8 -3 -15 -1 -15 4 0 6 7 10 15 10 8
0 15 -2 15 -4z m-1030 -436 c0 -5 -2 -10 -4 -10 -3 0 -8 5 -11 10 -3 6 -1 10
4 10 6 0 11 -4 11 -10z m950 -130 c0 -5 -5 -10 -11 -10 -5 0 -7 5 -4 10 3 6 8
10 11 10 2 0 4 -4 4 -10z m3167 -3232 c-3 -7 -5 -2 -5 12 0 14 2 19 5 13 2 -7
2 -19 0 -25z"/>
<path d="M4144 5315 c25 -19 37 -19 30 0 -4 8 -16 15 -28 15 -21 -1 -21 -1 -2
-15z"/>
<path d="M3415 5192 c-28 -15 -28 -17 -8 -20 12 -2 31 6 42 17 25 25 8 27 -34
3z"/>
<path d="M4783 5164 c-6 -17 15 -37 29 -28 13 9 9 32 -7 38 -9 3 -18 -1 -22
-10z"/>
<path d="M3607 5103 c-17 -20 -34 -93 -20 -93 4 0 16 15 25 33 35 67 32 100
-5 60z"/>
<path d="M4804 5008 c3 -13 6 -30 7 -38 0 -8 5 -2 9 14 10 31 6 46 -12 46 -6
0 -8 -10 -4 -22z"/>
<path d="M3375 4913 c-45 -15 -114 -82 -144 -139 -11 -20 -26 -41 -33 -46 -10
-6 -9 -8 3 -8 14 0 16 -6 8 -39 -13 -56 -8 -151 8 -188 19 -41 33 -42 33 -4 0
16 3 36 6 45 9 23 27 20 19 -3 -6 -19 17 -113 34 -140 12 -19 31 -4 31 25 0
15 6 24 15 24 8 0 15 -9 15 -20 0 -11 4 -20 10 -20 5 0 17 -15 25 -32 30 -64
60 -110 78 -119 9 -6 17 -15 17 -20 0 -25 60 -62 84 -53 10 4 16 1 16 -7 0 -8
5 -6 13 5 12 16 17 17 38 5 13 -7 30 -12 37 -11 6 2 12 -2 12 -8 0 -6 3 -9 8
-7 4 3 18 0 32 -5 14 -6 44 -10 66 -9 23 2 45 -2 49 -8 9 -15 75 -14 101 2 12
6 34 21 49 32 15 10 39 20 54 21 64 5 110 36 196 131 47 53 85 102 85 109 0
22 26 16 38 -8 10 -21 11 -20 11 15 1 40 -22 97 -39 97 -6 0 -10 -4 -10 -9 0
-21 -156 -33 -270 -21 -41 5 -104 11 -140 15 -36 3 -72 8 -82 11 -9 3 -41 -4
-72 -15 l-55 -19 -33 25 c-25 18 -43 23 -75 22 -23 -2 -48 3 -56 10 -9 6 -18
8 -21 3 -5 -9 -96 -24 -148 -25 -16 0 -28 -4 -28 -8 0 -5 -7 -9 -15 -9 -8 0
-15 7 -15 15 0 9 -11 21 -25 27 -14 6 -23 16 -20 22 3 6 8 19 11 29 4 9 13 17
20 17 8 0 14 6 15 13 1 6 2 23 2 37 1 15 11 29 24 35 18 8 22 17 21 50 -2 28
5 51 20 72 12 17 22 36 22 41 0 6 4 12 9 14 6 2 4 12 -2 24 -11 20 -14 21 -52
7z m217 -492 c10 -16 14 -17 22 -6 6 7 22 16 36 20 18 4 21 4 11 -4 -13 -8
-13 -12 -1 -26 13 -16 15 -16 21 2 5 15 18 18 90 19 46 1 116 3 154 6 64 3 72
1 93 -21 17 -17 26 -21 35 -12 6 6 25 11 43 11 33 0 44 -16 44 -67 0 -28 -45
-63 -81 -63 -15 0 -29 -5 -31 -12 -2 -6 -10 -8 -17 -4 -9 6 -9 11 0 22 6 7 15
11 20 8 5 -3 9 2 9 12 0 13 -3 14 -14 4 -8 -6 -31 -10 -50 -9 -19 2 -38 0 -42
-4 -4 -4 4 -7 18 -7 23 0 38 -16 38 -40 0 -16 -85 -41 -148 -44 -48 -2 -78 2
-113 17 -46 20 -79 60 -59 72 17 11 11 23 -12 23 -57 1 -94 14 -115 40 -22 27
-31 58 -14 48 5 -3 11 3 14 14 7 25 33 26 49 1z m608 -39 c0 -14 -40 -56 -46
-49 -8 8 23 57 36 57 6 0 10 -4 10 -8z"/>
<path d="M3936 4405 c4 -8 11 -15 16 -15 6 0 5 6 -2 15 -7 8 -14 15 -16 15 -2
0 -1 -7 2 -15z"/>
<path d="M2921 4784 c0 -11 3 -14 6 -6 3 7 2 16 -1 19 -3 4 -6 -2 -5 -13z"/>
<path d="M4701 4774 c0 -11 3 -14 6 -6 3 7 2 16 -1 19 -3 4 -6 -2 -5 -13z"/>
<path d="M4670 4650 c0 -5 5 -10 10 -10 6 0 10 5 10 10 0 6 -4 10 -10 10 -5 0
-10 -4 -10 -10z"/>
<path d="M3476 4625 c4 -8 10 -15 15 -15 4 0 6 7 3 15 -4 8 -10 15 -15 15 -4
0 -6 -7 -3 -15z"/>
<path d="M4644 4598 c3 -13 1 -60 -5 -105 -8 -60 -8 -86 1 -100 6 -10 10 -12
8 -4 -2 8 6 25 19 39 19 21 23 36 23 93 0 55 -3 69 -15 69 -8 0 -15 7 -15 15
0 8 -5 15 -11 15 -7 0 -9 -9 -5 -22z"/>
<path d="M3406 4574 c-5 -14 -4 -15 9 -4 17 14 19 20 6 20 -5 0 -12 -7 -15
-16z"/>
<path d="M3885 4091 c-3 -6 -12 -8 -18 -5 -8 5 -8 3 1 -7 9 -10 15 -10 24 -1
6 6 9 14 6 17 -3 4 -9 1 -13 -4z"/>
<path d="M3910 4096 c0 -9 30 -14 35 -6 4 6 -3 10 -14 10 -12 0 -21 -2 -21 -4z"/>
<path d="M3828 4083 c7 -3 16 -2 19 1 4 3 -2 6 -13 5 -11 0 -14 -3 -6 -6z"/>
<path d="M3548 3613 c7 -3 16 -2 19 1 4 3 -2 6 -13 5 -11 0 -14 -3 -6 -6z"/>
<path d="M3345 3561 c-3 -5 -1 -12 5 -16 5 -3 10 1 10 9 0 18 -6 21 -15 7z"/>
<path d="M3420 3421 c0 -12 5 -21 10 -21 6 0 10 6 10 14 0 8 -4 18 -10 21 -5
3 -10 -3 -10 -14z"/>
<path d="M3032 3388 c-23 -37 -28 -58 -13 -58 12 0 43 68 39 82 -2 6 -14 -4
-26 -24z"/>
<path d="M4430 3379 c0 -5 5 -7 10 -4 6 3 10 8 10 11 0 2 -4 4 -10 4 -5 0 -10
-5 -10 -11z"/>
<path d="M3560 3320 c0 -5 5 -10 10 -10 6 0 10 5 10 10 0 6 -4 10 -10 10 -5 0
-10 -4 -10 -10z"/>
<path d="M2760 3134 c0 -26 60 -102 96 -119 35 -17 36 -20 16 -23 -29 -4 -24
-23 12 -41 24 -11 30 -11 37 0 6 9 3 18 -7 26 -13 10 -13 12 -1 20 12 6 7 18
-24 60 -31 42 -47 53 -77 59 -20 4 -40 12 -44 18 -5 7 -8 7 -8 0z"/>
<path d="M5364 3103 c2 -10 -5 -26 -16 -37 -20 -22 -23 -36 -8 -36 6 0 10 6
10 14 0 7 7 19 15 26 8 7 12 17 9 22 -4 6 2 7 17 3 21 -7 22 -6 10 9 -18 21
-40 21 -37 -1z"/>
<path d="M5284 2930 c-12 -4 -46 -46 -76 -92 -58 -89 -85 -143 -47 -98 11 14
36 44 55 68 19 23 58 54 85 68 36 18 49 30 45 40 -3 9 -6 18 -6 20 0 7 -33 3
-56 -6z"/>
<path d="M5067 2613 c-70 -107 -187 -295 -187 -299 0 -3 -39 -66 -86 -142 -89
-141 -121 -202 -105 -202 13 0 27 21 40 62 11 33 74 135 239 390 32 48 66 102
77 120 11 18 29 34 40 36 33 6 57 33 44 48 -6 8 -16 11 -22 7 -6 -3 -7 -1 -3
6 4 6 12 9 17 6 5 -4 9 1 9 9 0 36 -22 22 -63 -41z"/>
<path d="M3530 2552 c-156 -87 -516 -371 -551 -434 -13 -24 -7 -23 25 5 32 28
214 121 288 146 29 10 96 43 148 73 l95 55 -3 51 c-2 43 1 53 20 66 12 9 35
16 50 16 14 0 33 6 40 13 7 7 22 18 33 24 19 11 19 12 -8 22 -41 16 -44 15
-137 -37z"/>
<path d="M3698 2517 c-91 -30 -129 -50 -74 -40 39 8 41 -16 5 -53 -18 -19 -30
-34 -27 -34 17 0 107 20 131 29 27 10 27 12 13 33 -20 28 -20 54 -1 62 10 3
15 -1 15 -12 0 -10 3 -13 8 -6 10 16 35 22 52 14 9 -5 23 -3 33 5 18 13 18 14
-2 24 -28 15 -44 13 -153 -22z"/>
<path d="M3884 2495 c-3 -8 -3 -18 0 -24 3 -5 -6 -19 -21 -30 l-28 -20 25 -1
c27 0 90 34 90 49 0 8 -43 41 -55 41 -3 0 -8 -7 -11 -15z"/>
<path d="M6795 2490 c10 -11 20 -20 23 -20 3 0 -3 9 -13 20 -10 11 -20 20 -23
20 -3 0 3 -9 13 -20z"/>
<path d="M4065 2356 c-13 -15 -21 -40 -23 -74 -2 -29 -1 -52 2 -52 19 0 62
135 47 144 -4 3 -15 -6 -26 -18z"/>
<path d="M4155 2315 c-5 -2 -22 -6 -37 -9 -19 -4 -26 -11 -22 -21 7 -16 59
-14 90 3 16 9 16 10 -2 19 -10 6 -23 9 -29 8z"/>
<path d="M4330 2181 c0 -16 48 -58 120 -107 36 -24 86 -60 113 -80 78 -60 52
-24 -36 49 -108 88 -197 151 -197 138z"/>
<path d="M7100 2135 c0 -5 5 -17 10 -25 5 -8 10 -10 10 -5 0 6 -5 17 -10 25
-5 8 -10 11 -10 5z"/>
<path d="M7258 1993 c7 -3 16 -2 19 1 4 3 -2 6 -13 5 -11 0 -14 -3 -6 -6z"/>
<path d="M3982 1524 c-12 -48 -20 -89 -18 -91 5 -6 48 156 44 168 -2 6 -14
-29 -26 -77z"/>
<path d="M3810 1542 c0 -15 -7 -39 -16 -52 l-16 -25 21 24 c18 20 30 81 16 81
-3 0 -5 -12 -5 -28z"/>
<path d="M5935 1407 c-52 -54 -146 -243 -161 -322 -4 -22 -13 -53 -20 -70 -13
-32 -64 -236 -68 -270 -1 -12 -5 -25 -8 -30 -3 -6 -9 -34 -12 -63 -3 -30 -9
-59 -13 -65 -3 -6 -8 -31 -9 -56 -2 -25 -7 -73 -12 -106 -7 -43 -6 -62 2 -67
8 -6 8 -8 -1 -8 -19 0 -9 -64 10 -68 9 -2 17 -8 17 -14 0 -5 -7 -8 -15 -5 -8
4 -17 2 -20 -3 -4 -6 3 -10 14 -10 13 0 21 -7 21 -16 0 -12 -3 -14 -12 -6 -10
8 -12 -3 -10 -51 4 -103 4 -104 28 -99 15 3 24 14 28 35 3 16 15 36 26 44 11
8 20 24 20 37 0 12 3 26 7 30 7 7 12 25 17 66 1 14 5 32 8 40 31 83 38 112 38
147 0 23 4 44 10 48 5 3 7 12 4 19 -3 7 2 20 10 29 8 8 13 17 10 20 -3 2 4 42
15 88 28 113 40 171 39 189 0 21 9 77 21 125 6 22 13 65 16 95 3 30 10 78 15
105 10 58 31 256 27 255 -1 -1 -20 -20 -42 -43z"/>
<path d="M1085 1278 c15 -181 47 -280 127 -397 23 -32 33 -40 39 -30 18 29 9
106 -20 170 -16 35 -41 100 -55 144 -41 123 -74 195 -89 195 -5 0 -6 -32 -2
-82z"/>
<path d="M3933 1285 c0 -22 2 -30 4 -17 2 12 2 30 0 40 -3 9 -5 -1 -4 -23z"/>
<path d="M3921 1214 c0 -11 3 -14 6 -6 3 7 2 16 -1 19 -3 4 -6 -2 -5 -13z"/>
<path d="M3896 1124 c-4 -14 -5 -28 -3 -31 3 -2 8 8 11 23 4 14 5 28 3 31 -3
2 -8 -8 -11 -23z"/>
<path d="M879 1129 c-1 -8 -1 -18 0 -23 1 -4 -3 -13 -8 -20 -5 -6 -12 -99 -15
-206 -4 -107 -9 -210 -11 -228 -9 -65 -13 -241 -6 -244 6 -2 20 -275 21 -395
0 -10 26 -13 95 -13 l96 0 -6 38 c-3 20 -13 73 -22 117 -9 44 -17 91 -19 105
-1 14 -8 59 -14 100 -14 96 -18 126 -30 290 -15 205 -30 328 -42 358 -13 31
-16 45 -21 89 -4 35 -16 56 -18 32z"/>
<path d="M6092 1048 c0 -29 -7 -84 -16 -123 -18 -81 -32 -219 -41 -390 -4 -66
-13 -205 -21 -310 -8 -104 -14 -198 -14 -208 0 -15 7 -18 52 -15 l53 3 7 55
c4 30 15 84 23 120 51 217 67 344 46 366 -6 5 -13 52 -16 104 -9 141 -35 370
-46 413 -14 53 -26 46 -27 -15z"/>
<path d="M3702 68 c-5 -18 -13 -42 -17 -53 -6 -14 -5 -17 3 -10 11 11 34 86
27 93 -2 2 -8 -11 -13 -30z"/>
</g>
</svg>
